<svg width="15" height="19" viewBox="0 0 15 19" fill="none" xmlns="http://www.w3.org/2000/svg">
<path fill-rule="evenodd" clip-rule="evenodd" d="M14.1 8.8999V16.2C14.1 17.4 13.1 18.3 12 18.3H2.59998C1.39998 18.3 0.5 17.4 0.5 16.2V8.8999C0.5 7.6999 1.39998 6.80005 2.59998 6.80005H3.40002V4.3999C3.40002 2.2999 5.10005 0.5 7.30005 0.5C9.50005 0.5 11.2 2.2999 11.2 4.3999V6.80005H12C13.1 6.80005 14.1 7.6999 14.1 8.8999ZM4.09998 6.80005H5V4.3999C5 3.1999 6.10005 2.19995 7.30005 2.19995C8.50005 2.19995 9.5 3.1999 9.5 4.3999V6.80005H10.5V4.3999C10.5 2.5999 9.10005 1.19995 7.30005 1.19995C5.50005 1.19995 4.09998 2.5999 4.09998 4.3999V6.80005ZM7.30005 2.8999C6.40005 2.8999 5.69995 3.5999 5.69995 4.3999V6.80005H8.80005V4.3999C8.80005 3.5999 8.10005 2.8999 7.30005 2.8999ZM13.4 8.8999C13.4 8.0999 12.8 7.5 12 7.5H2.59998C1.79998 7.5 1.19995 8.0999 1.19995 8.8999V16.2C1.19995 17 1.79998 17.6001 2.59998 17.6001H12C12.8 17.6001 13.4 17 13.4 16.2V8.8999Z" fill="#FD7D86"/>
</svg>
