<svg width="146" height="289" viewBox="0 0 146 289" fill="none" xmlns="http://www.w3.org/2000/svg">
<path opacity="0.2" d="M73.0843 289C36.4861 289 6.88705 286.793 6.88705 284.161C6.88705 281.445 36.4861 279.322 73.0843 279.322C109.683 279.322 139.282 281.445 139.282 284.161C139.282 286.793 109.683 289 73.0843 289Z" fill="black"/>
<path d="M5.79089 17.856C5.79089 9.70644 12.4528 3 20.5482 3H125.368C133.547 3 140.125 9.70644 140.125 17.856V269.475C140.125 277.709 133.547 284.331 125.368 284.331H20.5482C12.4528 284.331 5.79089 277.709 5.79089 269.475V17.856Z" fill="white" stroke="#B8B8B8" class="border--svg" stroke-width="6"/>
<path d="M3.42963 42.2198C3.42963 40.6069 4.69456 39.3334 6.29679 39.3334V49.4356C4.69456 49.4356 3.42963 48.1621 3.42963 46.5492V42.2198Z" fill="white" stroke="#B8B8B8" class="border--svg" stroke-width="6"/>
<path d="M3.42963 64.122C3.42963 62.5091 4.69456 61.2356 6.29679 61.2356V80.5909C4.69456 80.5909 3.42963 79.3177 3.42963 77.7047V64.122Z" fill="white" stroke="#B8B8B8" class="border--svg"  stroke-width="6"/>
<path d="M3.42963 89.7592C3.42963 88.1463 4.69456 86.8728 6.29679 86.8728V106.228C4.69456 106.228 3.42963 104.87 3.42963 103.257V89.7592Z" fill="white" stroke="#B8B8B8" class="border--svg" stroke-width="6"/>
<path d="M139.619 67.8572C141.221 67.8572 142.57 69.2154 142.57 70.8284V96.4656C142.57 97.9937 141.221 99.3521 139.619 99.3521V67.8572Z" fill="white" stroke="#B8B8B8"  class="border--svg" stroke-width="6"/>
<path d="M12.537 121C12.537 118.708 14.4766 116.755 16.7534 116.755H128.909C131.186 116.755 133.126 118.708 133.126 121V146.467C133.126 148.759 131.186 150.712 128.909 150.712H16.7534C14.4766 150.712 12.537 148.759 12.537 146.467V121Z" fill="white"/>
<path d="M30.3302 143.75C24.8489 143.75 20.4638 139.251 20.4638 133.733C20.4638 128.215 24.8489 123.801 30.3302 123.801C35.8115 123.801 40.2808 128.215 40.2808 133.733C40.2808 139.251 35.8115 143.75 30.3302 143.75Z" fill="#E8E8E8"/>
<path d="M47.4487 128.809C47.4487 127.112 48.7981 125.753 50.4846 125.753H99.3947C101.081 125.753 102.515 127.112 102.515 128.809C102.515 130.507 101.081 131.95 99.3947 131.95H50.4846C48.7981 131.95 47.4487 130.507 47.4487 128.809Z" fill="#EBEBEB"/>
<path d="M47.9547 138.402C47.9547 137.214 48.8823 136.195 50.0629 136.195H57.6524C58.833 136.195 59.7606 137.214 59.7606 138.402C59.7606 139.591 58.833 140.525 57.6524 140.525H50.0629C48.8823 140.525 47.9547 139.591 47.9547 138.402Z" fill="#EBEBEB"/>
<path d="M64.5672 138.402C64.5672 137.214 65.4948 136.195 66.6754 136.195H73.7589C74.9395 136.195 75.9514 137.214 75.9514 138.402C75.9514 139.591 74.9395 140.525 73.7589 140.525H66.6754C65.4948 140.525 64.5672 139.591 64.5672 138.402Z" fill="#EBEBEB"/>
<path d="M12.537 160.304C12.537 157.927 14.4766 156.06 16.7534 156.06H128.909C131.186 156.06 133.126 157.927 133.126 160.304V185.687C133.126 188.064 131.186 189.931 128.909 189.931H16.7534C14.4766 189.931 12.537 188.064 12.537 185.687V160.304Z" fill="white"/>
<path d="M30.3302 182.97C24.8489 182.97 20.4638 178.471 20.4638 173.038C20.4638 167.52 24.8489 163.021 30.3302 163.021C35.8115 163.021 40.2808 167.52 40.2808 173.038C40.2808 178.471 35.8115 182.97 30.3302 182.97Z" fill="#E8E8E8"/>
<path d="M47.4487 168.114C47.4487 166.332 48.7981 164.973 50.4846 164.973H99.3947C101.081 164.973 102.515 166.332 102.515 168.114C102.515 169.812 101.081 171.17 99.3947 171.17H50.4846C48.7981 171.17 47.4487 169.812 47.4487 168.114Z" fill="#EBEBEB"/>
<path d="M47.9547 177.622C47.9547 176.434 48.8823 175.5 50.0629 175.5H57.6524C58.833 175.5 59.7606 176.434 59.7606 177.622C59.7606 178.811 58.833 179.745 57.6524 179.745H50.0629C48.8823 179.745 47.9547 178.811 47.9547 177.622Z" fill="#EBEBEB"/>
<path d="M64.5672 177.622C64.5672 176.434 65.4948 175.5 66.6754 175.5H73.7589C74.9395 175.5 75.9514 176.434 75.9514 177.622C75.9514 178.811 74.9395 179.745 73.7589 179.745H66.6754C65.4948 179.745 64.5672 178.811 64.5672 177.622Z" fill="#EBEBEB"/>
<path d="M12.537 199.524C12.537 197.232 14.4766 195.28 16.7534 195.28H128.909C131.186 195.28 133.126 197.232 133.126 199.524V224.992C133.126 227.284 131.186 229.236 128.909 229.236H16.7534C14.4766 229.236 12.537 227.284 12.537 224.992V199.524Z" fill="white"/>
<path d="M30.3302 222.19C24.8489 222.19 20.4638 217.776 20.4638 212.258C20.4638 206.74 24.8489 202.241 30.3302 202.241C35.8115 202.241 40.2808 206.74 40.2808 212.258C40.2808 217.776 35.8115 222.19 30.3302 222.19Z" fill="#E8E8E8"/>
<path d="M47.4487 207.334C47.4487 205.637 48.7981 204.278 50.4846 204.278H99.3947C101.081 204.278 102.515 205.637 102.515 207.334C102.515 209.032 101.081 210.39 99.3947 210.39H50.4846C48.7981 210.39 47.4487 209.032 47.4487 207.334Z" fill="#EBEBEB"/>
<path d="M47.9547 216.842C47.9547 215.654 48.8823 214.72 50.0629 214.72H57.6524C58.833 214.72 59.7606 215.654 59.7606 216.842C59.7606 218.031 58.833 219.049 57.6524 219.049H50.0629C48.8823 219.049 47.9547 218.031 47.9547 216.842Z" fill="#EBEBEB"/>
<path d="M64.5672 216.842C64.5672 215.654 65.4948 214.72 66.6754 214.72H73.7589C74.9395 214.72 75.9514 215.654 75.9514 216.842C75.9514 218.031 74.9395 219.049 73.7589 219.049H66.6754C65.4948 219.049 64.5672 218.031 64.5672 216.842Z" fill="#EBEBEB"/>
<path d="M12.537 239.678C12.537 237.301 14.4766 235.433 16.7534 235.433H128.909C131.186 235.433 133.126 237.301 133.126 239.678V265.145C133.126 267.438 131.186 269.39 128.909 269.39H16.7534C14.4766 269.39 12.537 267.438 12.537 265.145V239.678Z" fill="white"/>
<path d="M30.3302 262.344C24.8489 262.344 20.4638 257.93 20.4638 252.412C20.4638 246.894 24.8489 242.395 30.3302 242.395C35.8115 242.395 40.2808 246.894 40.2808 252.412C40.2808 257.93 35.8115 262.344 30.3302 262.344Z" fill="#E8E8E8"/>
<path d="M47.4487 247.488C47.4487 245.79 48.7981 244.347 50.4846 244.347H99.3947C101.081 244.347 102.515 245.79 102.515 247.488C102.515 249.186 101.081 250.544 99.3947 250.544H50.4846C48.7981 250.544 47.4487 249.186 47.4487 247.488Z" fill="#EBEBEB"/>
<path d="M47.9547 256.996C47.9547 255.808 48.8823 254.874 50.0629 254.874H57.6524C58.833 254.874 59.7606 255.808 59.7606 256.996C59.7606 258.185 58.833 259.203 57.6524 259.203H50.0629C48.8823 259.203 47.9547 258.185 47.9547 256.996Z" fill="#EBEBEB"/>
<path d="M64.5672 256.996C64.5672 255.808 65.4948 254.874 66.6754 254.874H73.7589C74.9395 254.874 75.9514 255.808 75.9514 256.996C75.9514 258.185 74.9395 259.203 73.7589 259.203H66.6754C65.4948 259.203 64.5672 258.185 64.5672 256.996Z" fill="#EBEBEB"/>
<path d="M12.5371 102.408C12.5371 101.474 13.296 100.71 14.2236 100.71H51.6651C52.5927 100.71 53.3516 101.474 53.3516 102.408V108.69C53.3516 109.624 52.5927 110.388 51.6651 110.388H14.2236C13.296 110.388 12.5371 109.624 12.5371 108.69V102.408Z" fill="#EFEFEF"/>
<path d="M92.817 71.5076C92.817 70.3191 93.7446 69.3003 94.9252 69.3003H108.418C109.598 69.3003 110.526 70.3191 110.526 71.5076C110.526 72.696 109.598 73.7146 108.418 73.7146H94.9252C93.7446 73.7146 92.817 72.696 92.817 71.5076Z" fill="#EFEFEF"/>
<path d="M12.537 27.6187C12.537 25.3267 14.4766 23.3741 16.7534 23.3741H128.488C130.765 23.3741 132.704 25.3267 132.704 27.6187V82.4586C132.704 84.8356 130.765 86.7032 128.488 86.7032H16.7534C14.4766 86.7032 12.537 84.8356 12.537 82.4586V27.6187Z" fill="#F6F6F6"/>
<path d="M34.6309 43.833C26.2825 43.833 19.5362 37.0417 19.5362 28.6374C19.5362 20.1483 26.2825 13.3569 34.6309 13.3569C42.9794 13.3569 49.7256 20.1483 49.7256 28.6374C49.7256 37.0417 42.9794 43.833 34.6309 43.833Z" fill="white" stroke="#E4E4E4" stroke-width="2"/>
<path d="M56.7247 38.7394C56.7247 36.1077 58.8329 34.0703 61.3628 34.0703H112.634C115.248 34.0703 117.272 36.1077 117.272 38.7394V39.5035C117.272 42.1352 115.248 44.1726 112.634 44.1726H61.3628C58.8329 44.1726 56.7247 42.1352 56.7247 39.5035V38.7394Z" fill="#EFEFEF"/>
<path d="M22.6564 62.6787C22.6564 57.2456 26.9571 52.9161 32.3541 52.9161H35.0525C40.3652 52.9161 44.7502 57.2456 44.7502 62.6787V65.3954C44.7502 70.7436 40.3652 75.1579 35.0525 75.1579H32.3541C26.9571 75.1579 22.6564 70.7436 22.6564 65.3954V62.6787Z" stroke="#707070" stroke-width="8"/>
<path d="M45.7621 56.9911C49.5568 75.837 33.7032 76.6859 33.7032 76.6859V64.5465C33.7032 64.5465 45.7621 56.9062 45.7621 56.9911Z" fill="#F6F6F6"/>
<path d="M47.6174 62.5938C47.6174 60.7262 49.1353 59.1981 50.9905 59.1981H78.3971C80.2523 59.1981 81.7702 60.7262 81.7702 62.5938C81.7702 64.4614 80.2523 65.9895 78.3971 65.9895H50.9905C49.1353 65.9895 47.6174 64.4614 47.6174 62.5938Z" fill="#EFEFEF"/>
<path d="M92.817 62.5938C92.817 60.7262 94.2506 59.1981 96.1901 59.1981H118.706C120.561 59.1981 122.079 60.7262 122.079 62.5938C122.079 64.4614 120.561 65.9895 118.706 65.9895H96.1901C94.2506 65.9895 92.817 64.4614 92.817 62.5938Z" fill="#EFEFEF"/>
<path d="M47.6174 71.5076C47.6174 70.3191 48.6293 69.3003 49.8099 69.3003H63.2181C64.3987 69.3003 65.4106 70.3191 65.4106 71.5076C65.4106 72.696 64.3987 73.7146 63.2181 73.7146H49.8099C48.6293 73.7146 47.6174 72.696 47.6174 71.5076Z" fill="#EFEFEF"/>
<path d="M87.2515 52.6617V80.2515" stroke="#E8E8E8"/>
</svg>
